# This file uses centimeters as units for non-parametric coordinates.

mtllib cuadro chico.mtl
g default
v -5.831439 0.455119 16.705081
v -3.357477 0.455119 16.705081
v -5.831439 3.260851 16.705081
v -3.357477 3.260851 16.705081
v -5.831439 3.260851 16.366603
v -3.357477 3.260851 16.366603
v -5.831439 0.455119 16.366603
v -3.357477 0.455119 16.366603
v -5.621240 0.693507 16.705081
v -3.567677 0.693507 16.705081
v -3.567677 3.022464 16.705081
v -5.621240 3.022464 16.705081
v -5.621240 0.693507 16.427162
v -3.567677 0.693507 16.427162
v -3.567677 3.022464 16.427162
v -5.621240 3.022464 16.427162
vt 0.375000 0.000000
vt 0.625000 0.000000
vt 0.375000 0.250000
vt 0.625000 0.250000
vt 0.375000 0.500000
vt 0.625000 0.500000
vt 0.375000 0.750000
vt 0.625000 0.750000
vt 0.375000 1.000000
vt 0.625000 1.000000
vt 0.875000 0.000000
vt 0.875000 0.250000
vt 0.125000 0.000000
vt 0.125000 0.250000
vt 0.375000 0.000000
vt 0.625000 0.000000
vt 0.625000 0.250000
vt 0.375000 0.250000
vt 0.375000 0.000000
vt 0.625000 0.000000
vt 0.625000 0.250000
vt 0.375000 0.250000
vt 0.000032 -0.000000
vt 1.000032 -0.000000
vt 1.000032 1.000000
vt 0.000032 1.000000
vn 0.000000 0.000000 1.000000
vn 0.000000 0.000000 1.000000
vn 0.000000 0.000000 1.000000
vn 0.000000 0.000000 1.000000
vn 0.000000 1.000000 0.000000
vn 0.000000 1.000000 0.000000
vn 0.000000 1.000000 0.000000
vn 0.000000 1.000000 0.000000
vn 0.000000 0.000000 -1.000000
vn 0.000000 0.000000 -1.000000
vn 0.000000 0.000000 -1.000000
vn 0.000000 0.000000 -1.000000
vn 0.000000 -1.000000 0.000000
vn 0.000000 -1.000000 0.000000
vn 0.000000 -1.000000 0.000000
vn 0.000000 -1.000000 0.000000
vn 1.000000 0.000000 0.000000
vn 1.000000 0.000000 0.000000
vn 1.000000 0.000000 0.000000
vn 1.000000 0.000000 0.000000
vn -1.000000 0.000000 0.000000
vn -1.000000 0.000000 0.000000
vn -1.000000 0.000000 0.000000
vn -1.000000 0.000000 0.000000
vn 0.000000 0.000000 1.000000
vn 0.000000 0.000000 1.000000
vn 0.000000 0.000000 1.000000
vn 0.000000 0.000000 1.000000
vn 0.000005 0.000000 1.000000
vn 0.000005 0.000000 1.000000
vn 0.000005 0.000000 1.000000
vn 0.000005 0.000000 1.000000
vn 0.000000 0.000000 1.000000
vn 0.000000 0.000000 1.000000
vn 0.000000 0.000000 1.000000
vn 0.000000 0.000000 1.000000
vn -0.000007 0.000000 1.000000
vn -0.000007 0.000000 1.000000
vn -0.000007 0.000000 1.000000
vn -0.000007 0.000000 1.000000
vn 0.000000 1.000000 0.000000
vn 0.000000 1.000000 0.000000
vn 0.000000 1.000000 0.000000
vn 0.000000 1.000000 0.000000
vn -1.000000 0.000000 0.000000
vn -1.000000 0.000000 0.000000
vn -1.000000 0.000000 0.000000
vn -1.000000 0.000000 0.000000
vn 0.000000 -1.000000 0.000000
vn 0.000000 -1.000000 0.000000
vn 0.000000 -1.000000 0.000000
vn 0.000000 -1.000000 0.000000
vn 1.000000 0.000000 0.000000
vn 1.000000 0.000000 0.000000
vn 1.000000 0.000000 0.000000
vn 1.000000 0.000000 0.000000
s off
g pCube3 group1
usemtl lambert4SG
f 13/23/1 14/24/2 15/25/3 16/26/4
usemtl lambert3SG
f 3/3/5 4/4/6 6/6/7 5/5/8
f 5/5/9 6/6/10 8/8/11 7/7/12
f 7/7/13 8/8/14 2/10/15 1/9/16
f 2/2/17 8/11/18 6/12/19 4/4/20
f 7/13/21 1/1/22 3/3/23 5/14/24
f 1/1/25 2/2/26 10/16/27 9/15/28
f 2/2/29 4/4/30 11/17/31 10/16/32
f 4/4/33 3/3/34 12/18/35 11/17/36
f 3/3/37 1/1/38 9/15/39 12/18/40
f 9/15/41 10/16/42 14/20/43 13/19/44
f 10/16/45 11/17/46 15/21/47 14/20/48
f 11/17/49 12/18/50 16/22/51 15/21/52
f 12/18/53 9/15/54 13/19/55 16/22/56
g default
v -5.750509 3.259522 16.704555
v -5.750509 3.152233 16.704555
v -5.750509 3.238419 16.784324
v -5.750509 3.173337 16.784324
v -3.444688 3.238419 16.784324
v -3.444688 3.173337 16.784324
v -3.444687 3.259523 16.704555
v -3.444687 3.152233 16.704555
v -5.750509 3.227974 16.784324
v -5.750509 3.183781 16.784324
v -3.444688 3.183781 16.784324
v -3.444688 3.227975 16.784324
v -5.740169 3.227975 16.759342
v -5.740169 3.183781 16.759342
v -3.434348 3.183781 16.759341
v -3.434348 3.227975 16.759341
vt 0.375000 0.000000
vt 0.625000 0.000000
vt 0.375000 0.250000
vt 0.625000 0.250000
vt 0.375000 0.500000
vt 0.625000 0.500000
vt 0.375000 0.750000
vt 0.625000 0.750000
vt 0.375000 1.000000
vt 0.625000 1.000000
vt 0.875000 0.000000
vt 0.875000 0.250000
vt 0.125000 0.000000
vt 0.125000 0.250000
vt 0.375000 0.250000
vt 0.625000 0.250000
vt 0.625000 0.500000
vt 0.375000 0.500000
vt 0.375000 0.250000
vt 0.625000 0.250000
vt 0.625000 0.500000
vt 0.375000 0.500000
vn -1.000000 0.000000 0.000000
vn -1.000000 0.000000 0.000000
vn -1.000000 0.000000 0.000000
vn -1.000000 0.000000 0.000000
vn 0.000000 0.000000 1.000000
vn 0.000000 0.000000 1.000000
vn 0.000000 0.000000 1.000000
vn 0.000000 0.000000 1.000000
vn 1.000000 -0.000004 0.000004
vn 1.000000 -0.000004 0.000004
vn 1.000000 -0.000004 0.000004
vn 1.000000 -0.000004 0.000004
vn 0.000000 0.000000 -1.000000
vn 0.000000 0.000000 -1.000000
vn 0.000000 0.000000 -1.000000
vn 0.000000 0.000000 -1.000000
vn 0.000000 -0.966739 0.255765
vn 0.000000 -0.966739 0.255765
vn 0.000000 -0.966739 0.255765
vn 0.000000 -0.966739 0.255765
vn -0.000000 0.966740 0.255761
vn -0.000000 0.966740 0.255761
vn -0.000000 0.966740 0.255761
vn -0.000000 0.966740 0.255761
vn -0.000000 0.000000 0.000000
vn -0.000000 0.000000 0.000000
vn -0.000000 0.000000 0.000000
vn -0.000000 0.000000 0.000000
vn 0.000000 0.000000 1.000000
vn 0.000000 0.000000 1.000000
vn 0.000000 0.000000 1.000000
vn 0.000000 0.000000 1.000000
vn 0.000000 0.000000 -0.000000
vn 0.000000 0.000000 -0.000000
vn 0.752873 0.000000 -0.658166
vn 0.752873 0.000000 -0.658166
vn 0.000000 0.000000 1.000000
vn 0.000000 0.000000 1.000000
vn 0.000000 0.000000 1.000000
vn 0.000000 0.000000 1.000000
vn 0.923981 0.000000 0.382439
vn 0.923981 0.000000 0.382439
vn 0.923981 0.000000 0.382439
vn 0.923981 0.000000 0.382439
vn -0.000000 1.000000 0.000002
vn -0.000000 1.000000 0.000002
vn -0.000000 1.000000 0.000002
vn -0.000000 1.000000 0.000002
vn -0.923988 0.000000 -0.382423
vn -0.923988 0.000000 -0.382423
vn -0.923988 0.000000 -0.382423
vn -0.923988 0.000000 -0.382423
vn 0.000000 -1.000000 -0.000008
vn 0.000000 -1.000000 -0.000008
vn 0.000000 -1.000000 -0.000008
vn 0.000000 -1.000000 -0.000008
s off
g group1 pCube10
usemtl lambert3SG
f 17/27/57 18/28/58 20/30/59 19/29/60
f 29/45/61 30/46/62 31/47/63 32/48/64
f 21/31/65 22/32/66 24/34/67 23/33/68
f 23/33/69 24/34/70 18/36/71 17/35/72
f 18/28/73 24/37/74 22/38/75 20/30/76
f 23/39/77 17/27/78 19/29/79 21/40/80
f 19/29/81 20/30/82 26/42/83 25/41/84
f 20/30/85 22/32/86 27/43/87 26/42/88
f 22/32/89 21/31/90 28/44/91 27/43/92
f 21/31/93 19/29/94 25/41/95 28/44/96
f 25/41/97 26/42/98 30/46/99 29/45/100
f 26/42/101 27/43/102 31/47/103 30/46/104
f 27/43/105 28/44/106 32/48/107 31/47/108
f 28/44/109 25/41/110 29/45/111 32/48/112
g default
v -3.458857 0.454713 16.704555
v -3.351567 0.454713 16.704555
v -3.437753 0.454713 16.784324
v -3.372671 0.454713 16.784324
v -3.437753 3.261997 16.784324
v -3.372671 3.261997 16.784324
v -3.458857 3.261997 16.704555
v -3.351567 3.261997 16.704555
v -3.427309 0.454713 16.784324
v -3.383115 0.454713 16.784324
v -3.383115 3.245476 16.784324
v -3.427309 3.245476 16.784324
v -3.427309 0.467228 16.759342
v -3.383115 0.467228 16.759342
v -3.383115 3.257990 16.759341
v -3.427309 3.257990 16.759341
vt 0.375000 0.000000
vt 0.625000 0.000000
vt 0.375000 0.250000
vt 0.625000 0.250000
vt 0.375000 0.500000
vt 0.625000 0.500000
vt 0.375000 0.750000
vt 0.625000 0.750000
vt 0.375000 1.000000
vt 0.625000 1.000000
vt 0.875000 0.000000
vt 0.875000 0.250000
vt 0.125000 0.000000
vt 0.125000 0.250000
vt 0.375000 0.250000
vt 0.625000 0.250000
vt 0.625000 0.500000
vt 0.375000 0.500000
vt 0.375000 0.250000
vt 0.625000 0.250000
vt 0.625000 0.500000
vt 0.375000 0.500000
vn 0.000000 -1.000000 0.000000
vn 0.000000 -1.000000 0.000000
vn 0.000000 -1.000000 0.000000
vn 0.000000 -1.000000 0.000000
vn 0.000000 0.000000 1.000000
vn 0.000000 0.000000 1.000000
vn 0.000000 0.000000 1.000000
vn 0.000000 0.000000 1.000000
vn 0.000000 1.000000 -0.000003
vn 0.000000 1.000000 -0.000003
vn 0.000000 1.000000 -0.000003
vn 0.000000 1.000000 -0.000003
vn 0.000000 0.000000 -1.000000
vn 0.000000 0.000000 -1.000000
vn 0.000000 0.000000 -1.000000
vn 0.000000 0.000000 -1.000000
vn 0.966740 0.000000 0.255761
vn 0.966740 0.000000 0.255761
vn 0.966740 0.000000 0.255761
vn 0.966740 0.000000 0.255761
vn -0.966740 0.000000 0.255761
vn -0.966740 0.000000 0.255761
vn -0.966740 0.000000 0.255761
vn -0.966740 0.000000 0.255761
vn 0.000000 0.000000 0.000000
vn 0.000000 0.000000 0.000000
vn 0.000000 0.000000 0.000000
vn 0.000000 0.000000 0.000000
vn 0.000065 0.000000 1.000000
vn 0.000065 0.000000 1.000000
vn 0.000065 0.000000 1.000000
vn 0.000065 0.000000 1.000000
vn 0.000000 0.000000 1.000000
vn 0.000000 0.000000 1.000000
vn 0.000000 0.000000 1.000000
vn 0.000000 0.000000 1.000000
vn -0.000077 0.000000 1.000000
vn -0.000077 0.000000 1.000000
vn -0.000077 0.000000 1.000000
vn -0.000077 0.000000 1.000000
vn 0.000000 0.894088 0.447890
vn 0.000000 0.894088 0.447890
vn 0.000000 0.894088 0.447890
vn 0.000000 0.894088 0.447890
vn -1.000000 0.000000 0.000000
vn -1.000000 0.000000 0.000000
vn -1.000000 0.000000 0.000000
vn -1.000000 0.000000 0.000000
vn 0.000000 -0.894096 -0.447875
vn 0.000000 -0.894096 -0.447875
vn 0.000000 -0.894096 -0.447875
vn 0.000000 -0.894096 -0.447875
vn 1.000000 0.000000 0.000000
vn 1.000000 0.000000 0.000000
vn 1.000000 0.000000 0.000000
vn 1.000000 0.000000 0.000000
s off
g group1 pCube8
usemtl lambert3SG
f 33/49/113 34/50/114 36/52/115 35/51/116
f 45/67/117 46/68/118 47/69/119 48/70/120
f 37/53/121 38/54/122 40/56/123 39/55/124
f 39/55/125 40/56/126 34/58/127 33/57/128
f 34/50/129 40/59/130 38/60/131 36/52/132
f 39/61/133 33/49/134 35/51/135 37/62/136
f 35/51/137 36/52/138 42/64/139 41/63/140
f 36/52/141 38/54/142 43/65/143 42/64/144
f 38/54/145 37/53/146 44/66/147 43/65/148
f 37/53/149 35/51/150 41/63/151 44/66/152
f 41/63/153 42/64/154 46/68/155 45/67/156
f 42/64/157 43/65/158 47/69/159 46/68/160
f 43/65/161 44/66/162 48/70/163 47/69/164
f 44/66/165 41/63/166 45/67/167 48/70/168
g default
v -5.837523 0.454713 16.704555
v -5.730234 0.454713 16.704555
v -5.816420 0.454713 16.784324
v -5.751338 0.454713 16.784324
v -5.816420 3.256893 16.784324
v -5.751338 3.256893 16.784324
v -5.837523 3.256893 16.704555
v -5.730234 3.256893 16.704555
v -5.805975 0.454713 16.784324
v -5.761782 0.454713 16.784324
v -5.761782 3.247837 16.784324
v -5.805975 3.247837 16.784324
v -5.805975 0.467228 16.759342
v -5.761782 0.467228 16.759342
v -5.761782 3.255629 16.759341
v -5.805975 3.255629 16.759341
vt 0.375000 0.000000
vt 0.625000 0.000000
vt 0.375000 0.250000
vt 0.625000 0.250000
vt 0.375000 0.500000
vt 0.625000 0.500000
vt 0.375000 0.750000
vt 0.625000 0.750000
vt 0.375000 1.000000
vt 0.625000 1.000000
vt 0.875000 0.000000
vt 0.875000 0.250000
vt 0.125000 0.000000
vt 0.125000 0.250000
vt 0.375000 0.250000
vt 0.625000 0.250000
vt 0.625000 0.500000
vt 0.375000 0.500000
vt 0.375000 0.250000
vt 0.625000 0.250000
vt 0.625000 0.500000
vt 0.375000 0.500000
vn 0.000000 -1.000000 0.000000
vn 0.000000 -1.000000 0.000000
vn 0.000000 -1.000000 0.000000
vn 0.000000 -1.000000 0.000000
vn 0.000000 0.000000 1.000000
vn 0.000000 0.000000 1.000000
vn 0.000000 0.000000 1.000000
vn 0.000000 0.000000 1.000000
vn 0.000000 1.000000 0.000000
vn 0.000000 1.000000 0.000000
vn 0.000000 1.000000 0.000000
vn 0.000000 1.000000 0.000000
vn 0.000000 0.000000 -1.000000
vn 0.000000 0.000000 -1.000000
vn 0.000000 0.000000 -1.000000
vn 0.000000 0.000000 -1.000000
vn 0.966740 0.000000 0.255762
vn 0.966740 0.000000 0.255762
vn 0.966740 0.000000 0.255762
vn 0.966740 0.000000 0.255762
vn -0.966740 0.000000 0.255762
vn -0.966740 0.000000 0.255762
vn -0.966740 0.000000 0.255762
vn -0.966740 0.000000 0.255762
vn 0.000000 0.000000 -0.000000
vn 0.000000 0.000000 -0.000000
vn 0.000000 0.000000 -0.000000
vn 0.000000 0.000000 -0.000000
vn 0.000065 0.000000 1.000000
vn 0.000065 0.000000 1.000000
vn 0.000065 0.000000 1.000000
vn 0.000065 0.000000 1.000000
vn 0.000000 0.000000 1.000000
vn 0.000000 0.000000 1.000000
vn 0.000000 0.000000 1.000000
vn 0.000000 0.000000 1.000000
vn -0.000060 0.000000 1.000000
vn -0.000060 0.000000 1.000000
vn -0.000060 0.000000 1.000000
vn -0.000060 0.000000 1.000000
vn 0.000000 0.894089 0.447890
vn 0.000000 0.894089 0.447890
vn 0.000000 0.894089 0.447890
vn 0.000000 0.894089 0.447890
vn -1.000000 0.000000 0.000000
vn -1.000000 0.000000 0.000000
vn -1.000000 0.000000 0.000000
vn -1.000000 0.000000 0.000000
vn 0.000000 -0.954644 -0.297749
vn 0.000000 -0.954644 -0.297749
vn 0.000000 -0.954644 -0.297749
vn 0.000000 -0.954644 -0.297749
vn 1.000000 0.000000 0.000000
vn 1.000000 0.000000 0.000000
vn 1.000000 0.000000 0.000000
vn 1.000000 0.000000 0.000000
s off
g group1 pCube9
usemtl lambert3SG
f 49/71/169 50/72/170 52/74/171 51/73/172
f 61/89/173 62/90/174 63/91/175 64/92/176
f 53/75/177 54/76/178 56/78/179 55/77/180
f 55/77/181 56/78/182 50/80/183 49/79/184
f 50/72/185 56/81/186 54/82/187 52/74/188
f 55/83/189 49/71/190 51/73/191 53/84/192
f 51/73/193 52/74/194 58/86/195 57/85/196
f 52/74/197 54/76/198 59/87/199 58/86/200
f 54/76/201 53/75/202 60/88/203 59/87/204
f 53/75/205 51/73/206 57/85/207 60/88/208
f 57/85/209 58/86/210 62/90/211 61/89/212
f 58/86/213 59/87/214 63/91/215 62/90/216
f 59/87/217 60/88/218 64/92/219 63/91/220
f 60/88/221 57/85/222 61/89/223 64/92/224
g default
v -5.750548 0.547564 16.704555
v -5.750548 0.440274 16.704555
v -5.750548 0.526460 16.784324
v -5.750548 0.461378 16.784324
v -3.444727 0.526460 16.784324
v -3.444727 0.461378 16.784324
v -3.444727 0.547564 16.704555
v -3.444727 0.440274 16.704555
v -5.750548 0.516016 16.784324
v -5.750548 0.471822 16.784324
v -3.444727 0.471822 16.784324
v -3.444727 0.516016 16.784324
v -5.740208 0.516016 16.759342
v -5.740208 0.471822 16.759342
v -3.434387 0.471822 16.759341
v -3.434387 0.516016 16.759341
vt 0.375000 0.000000
vt 0.625000 0.000000
vt 0.375000 0.250000
vt 0.625000 0.250000
vt 0.375000 0.500000
vt 0.625000 0.500000
vt 0.375000 0.750000
vt 0.625000 0.750000
vt 0.375000 1.000000
vt 0.625000 1.000000
vt 0.875000 0.000000
vt 0.875000 0.250000
vt 0.125000 0.000000
vt 0.125000 0.250000
vt 0.375000 0.250000
vt 0.625000 0.250000
vt 0.625000 0.500000
vt 0.375000 0.500000
vt 0.375000 0.250000
vt 0.625000 0.250000
vt 0.625000 0.500000
vt 0.375000 0.500000
vn -1.000000 0.000000 0.000000
vn -1.000000 0.000000 0.000000
vn -1.000000 0.000000 0.000000
vn -1.000000 0.000000 0.000000
vn 0.000000 0.000000 1.000000
vn 0.000000 0.000000 1.000000
vn 0.000000 0.000000 1.000000
vn 0.000000 0.000000 1.000000
vn 1.000000 0.000000 0.000000
vn 1.000000 0.000000 0.000000
vn 1.000000 0.000000 0.000000
vn 1.000000 0.000000 0.000000
vn 0.000000 0.000000 -1.000000
vn 0.000000 0.000000 -1.000000
vn 0.000000 0.000000 -1.000000
vn 0.000000 0.000000 -1.000000
vn 0.000000 -0.966740 0.255763
vn 0.000000 -0.966740 0.255763
vn 0.000000 -0.966740 0.255763
vn 0.000000 -0.966740 0.255763
vn 0.000000 0.966740 0.255762
vn 0.000000 0.966740 0.255762
vn 0.000000 0.966740 0.255762
vn 0.000000 0.966740 0.255762
vn -0.000000 0.000000 0.000000
vn -0.000000 0.000000 0.000000
vn -0.000000 0.000000 0.000000
vn -0.000000 0.000000 0.000000
vn 0.000000 0.000000 1.000000
vn 0.000000 0.000000 1.000000
vn 0.000000 0.000000 1.000000
vn 0.000000 0.000000 1.000000
vn -0.000000 0.000000 0.000000
vn -0.000000 0.000000 0.000000
vn -1.000000 0.000000 0.000000
vn -1.000000 0.000000 0.000000
vn 0.000000 0.000000 1.000000
vn 0.000000 0.000000 1.000000
vn 0.000000 0.000000 1.000000
vn 0.000000 0.000000 1.000000
vn 0.923984 0.000000 0.382430
vn 0.923984 0.000000 0.382430
vn 0.923984 0.000000 0.382430
vn 0.923984 0.000000 0.382430
vn 0.000000 1.000000 -0.000000
vn 0.000000 1.000000 -0.000000
vn 0.000000 1.000000 -0.000000
vn 0.000000 1.000000 -0.000000
vn -0.923991 0.000000 -0.382414
vn -0.923991 0.000000 -0.382414
vn -0.923991 0.000000 -0.382414
vn -0.923991 0.000000 -0.382414
vn -0.000000 -1.000000 0.000000
vn -0.000000 -1.000000 0.000000
vn -0.000000 -1.000000 0.000000
vn -0.000000 -1.000000 0.000000
s off
g group1 pCube11
usemtl lambert3SG
f 65/93/225 66/94/226 68/96/227 67/95/228
f 77/111/229 78/112/230 79/113/231 80/114/232
f 69/97/233 70/98/234 72/100/235 71/99/236
f 71/99/237 72/100/238 66/102/239 65/101/240
f 66/94/241 72/103/242 70/104/243 68/96/244
f 71/105/245 65/93/246 67/95/247 69/106/248
f 67/95/249 68/96/250 74/108/251 73/107/252
f 68/96/253 70/98/254 75/109/255 74/108/256
f 70/98/257 69/97/258 76/110/259 75/109/260
f 69/97/261 67/95/262 73/107/263 76/110/264
f 73/107/265 74/108/266 78/112/267 77/111/268
f 74/108/269 75/109/270 79/113/271 78/112/272
f 75/109/273 76/110/274 80/114/275 79/113/276
f 76/110/277 73/107/278 77/111/279 80/114/280
